<svg xmlns="http://www.w3.org/2000/svg" viewBox="0 0 960 540"><title>Illustrated landscape demo, no live video</title><defs><linearGradient id="sky" x2="0" y2="1"><stop stop-color="#69bdda"/><stop offset="1" stop-color="#c0e6d5"/></linearGradient></defs><path fill="url(#sky)" d="M0 0h960v540H0z"/><circle cx="760" cy="105" r="48" fill="#ffefd0"/><path d="m0 335 130-153 130 128 200-193 210 205 127-146 163 139v225H0" fill="#658e88"/><path d="m0 390 194-157 95 190 254-224 203 211 214-95v225H0" fill="#356f6d"/><path d="M0 438q240-115 480-5t480-33v140H0" fill="#1e5e54"/><path d="m340 540 137-119h80L470 540" fill="#e0c49a"/><g fill="#153d42"><path d="m100 408 54-190 56 190zm690 5 50-205 70 205z"/><path d="M147 350h15v133h-15m687-125h15v140h-15"/></g><g fill="#65bd86"><path d="m94 340 60-155 63 155zm674-30 81-188 73 188z"/></g><g fill="#e7d4ab"><path d="m384 422 24-57 24 57zm155 8 22-47 22 47z"/></g><text x="40" y="62" fill="#fff" font-family="sans-serif" font-size="22" font-weight="bold" letter-spacing="4">WANDER</text><text x="40" y="90" fill="#fff" font-family="sans-serif" font-size="12">ILLUSTRATED DEMO · NO LIVE VIDEO</text></svg>
